<svg width="56" height="56" viewBox="0 0 56 56" fill="none" xmlns="http://www.w3.org/2000/svg">
<rect x="4" y="4" width="48" height="48" rx="24" fill="#FFF5D9"/>
<rect x="4" y="4" width="48" height="48" rx="24" stroke="#FFFDF4" stroke-width="8"/>
<path d="M36.8401 20.61C36.3294 20.099 35.7229 19.6936 35.0555 19.4171C34.388 19.1405 33.6726 18.9982 32.9501 18.9982C32.2276 18.9982 31.5122 19.1405 30.8448 19.4171C30.1773 19.6936 29.5709 20.099 29.0601 20.61L28.0001 21.67L26.9401 20.61C25.9084 19.5783 24.5092 18.9987 23.0501 18.9987C21.5911 18.9987 20.1918 19.5783 19.1601 20.61C18.1284 21.6417 17.5488 23.041 17.5488 24.5C17.5488 25.959 18.1284 27.3583 19.1601 28.39L20.2201 29.45L28.0001 37.23L35.7801 29.45L36.8401 28.39C37.3511 27.8792 37.7565 27.2728 38.033 26.6053C38.3096 25.9379 38.4519 25.2225 38.4519 24.5C38.4519 23.7775 38.3096 23.0621 38.033 22.3946C37.7565 21.7272 37.3511 21.1208 36.8401 20.61V20.61Z" stroke="#FDCF0B" stroke-width="2" stroke-linecap="round" stroke-linejoin="round"/>
</svg>
